<!-- Generated by IcoMoon.io -->
<svg version="1.1" xmlns="http://www.w3.org/2000/svg" width="32" height="32" viewBox="0 0 32 32">
<title>headIco4</title>
<path d="M10.488 13.417c0.736 0 1.333-0.597 1.333-1.333v-5.2c0-2.325 1.891-4.217 4.217-4.217s4.217 1.892 4.217 4.217v5.2c0 0.736 0.597 1.333 1.333 1.333s1.333-0.597 1.333-1.333v-5.2c0-3.795-3.088-6.883-6.883-6.883s-6.883 3.088-6.883 6.883v5.2c-0.001 0.736 0.597 1.333 1.333 1.333z"></path>
<path d="M31.333 10.421h-7.078v1.663c0 1.471-1.196 2.667-2.667 2.667s-2.667-1.196-2.667-2.667v-1.663h-5.766v1.663c0 1.471-1.196 2.667-2.667 2.667s-2.667-1.196-2.667-2.667v-1.663h-7.156c-0.368 0-0.595 0.29-0.508 0.647l4.665 18.999c0.282 1.068 1.405 1.933 2.51 1.933h17.333c1.105 0 2.228-0.866 2.511-1.933l4.664-18.999c0.087-0.358-0.14-0.647-0.509-0.647z"></path>
</svg>
