<!-- Generated by IcoMoon.io -->
<svg version="1.1" xmlns="http://www.w3.org/2000/svg" width="32" height="32" viewBox="0 0 32 32">
<title>headIco2</title>
<path d="M16 16c2.209 0 4.094-0.782 5.657-2.344s2.344-3.448 2.344-5.656c0-2.208-0.781-4.094-2.344-5.656s-3.448-2.343-5.657-2.343-4.094 0.781-5.656 2.343c-1.563 1.563-2.344 3.448-2.344 5.656s0.781 4.094 2.344 5.656c1.563 1.562 3.448 2.344 5.656 2.344z"></path>
<path d="M30.594 24.448c-0.049-0.701-0.146-1.458-0.292-2.271s-0.33-1.566-0.552-2.261c-0.222-0.694-0.521-1.371-0.896-2.031s-0.805-1.222-1.292-1.688c-0.486-0.465-1.080-0.837-1.781-1.114s-1.476-0.417-2.323-0.417c-0.125 0-0.417 0.149-0.875 0.448s-0.975 0.632-1.552 1c-0.576 0.368-1.327 0.701-2.25 0.999s-1.851 0.448-2.782 0.448c-0.931 0-1.858-0.149-2.781-0.448s-1.674-0.632-2.25-0.999c-0.576-0.368-1.094-0.702-1.552-1s-0.75-0.448-0.875-0.448c-0.847 0-1.622 0.139-2.323 0.417s-1.295 0.649-1.781 1.114c-0.486 0.465-0.917 1.028-1.292 1.688s-0.673 1.337-0.896 2.031c-0.222 0.695-0.406 1.448-0.552 2.261s-0.243 1.569-0.292 2.271c-0.049 0.702-0.073 1.42-0.073 2.157 0 1.666 0.507 2.983 1.521 3.948s2.361 1.447 4.042 1.447h18.209c1.68 0 3.028-0.482 4.042-1.447s1.521-2.281 1.521-3.948c-0-0.736-0.024-1.455-0.074-2.157z"></path>
</svg>
