<!-- Generated by IcoMoon.io -->
<svg version="1.1" xmlns="http://www.w3.org/2000/svg" width="32" height="32" viewBox="0 0 32 32">
<title>headIco3</title>
<path d="M29.732 4.5c-1.512-1.476-3.601-2.214-6.268-2.214-0.738 0-1.491 0.128-2.259 0.384s-1.482 0.601-2.143 1.036c-0.661 0.434-1.229 0.842-1.706 1.223s-0.928 0.786-1.357 1.214c-0.429-0.428-0.881-0.833-1.357-1.214s-1.045-0.788-1.706-1.223c-0.661-0.435-1.375-0.78-2.143-1.036s-1.521-0.384-2.259-0.384c-2.667 0-4.756 0.738-6.268 2.214s-2.268 3.524-2.268 6.143c0 0.798 0.14 1.619 0.42 2.464s0.598 1.566 0.955 2.161c0.357 0.595 0.762 1.176 1.214 1.741s0.783 0.955 0.991 1.17c0.208 0.214 0.372 0.369 0.491 0.464l11.143 10.75c0.214 0.214 0.476 0.322 0.786 0.322s0.572-0.107 0.786-0.321l11.125-10.715c2.726-2.726 4.089-5.405 4.089-8.036 0-2.619-0.756-4.667-2.268-6.143z"></path>
</svg>
