<!-- Generated by IcoMoon.io -->
<svg version="1.1" xmlns="http://www.w3.org/2000/svg" width="32" height="32" viewBox="0 0 32 32">
<title>headIco1</title>
<path d="M31.289 27.808l-6.596-6.596c1.59-2.295 2.385-4.853 2.385-7.673 0-1.833-0.356-3.587-1.068-5.26s-1.673-3.115-2.885-4.327-2.654-2.173-4.326-2.885c-1.673-0.712-3.427-1.067-5.26-1.067s-3.587 0.356-5.26 1.067c-1.673 0.711-3.115 1.673-4.327 2.885s-2.173 2.654-2.885 4.327c-0.712 1.673-1.067 3.426-1.067 5.26s0.356 3.586 1.067 5.259c0.711 1.673 1.673 3.115 2.885 4.327s2.654 2.173 4.327 2.885c1.673 0.712 3.426 1.067 5.26 1.067 2.821 0 5.379-0.795 7.673-2.385l6.596 6.577c0.462 0.487 1.038 0.731 1.731 0.731 0.667 0 1.244-0.244 1.731-0.731s0.731-1.064 0.731-1.731c0-0.679-0.237-1.256-0.711-1.731zM19.625 19.625c-1.686 1.686-3.715 2.529-6.087 2.529s-4.4-0.843-6.086-2.529-2.529-3.714-2.529-6.086c0-2.372 0.843-4.401 2.529-6.086s3.715-2.529 6.086-2.529c2.372 0 4.4 0.843 6.087 2.529s2.529 3.715 2.529 6.086c0 2.372-0.843 4.4-2.529 6.086z"></path>
</svg>
