<!-- Generated by IcoMoon.io -->
<svg version="1.1" xmlns="http://www.w3.org/2000/svg" width="32" height="32" viewBox="0 0 32 32">
<title>soc4</title>
<path d="M29.033 19.672l-0.004 0.002-13.706-18.279c-0.758-0.935-1.963-1.395-3.353-1.395-1.689 0-3.648 0.678-5.4 2.006-3.197 2.422-4.517 6.099-2.998 8.289l-0.002 0.002 13.708 18.277 11.781 3.426-0.026-12.328zM25.080 26.691c-0.453 0.344-0.754 0.814-0.893 1.326l-5.031-1.463c1.209-1.851 1.607-4.129 1.115-6.273 1.916 1.066 4.203 1.311 6.308 0.65l0.014 5.264c-0.527-0.008-1.061 0.152-1.514 0.496zM14.567 4.481l1.289 1.721c-1.506 0.164-3.162 0.824-4.666 1.963-1.508 1.143-2.598 2.562-3.17 3.974l-1.287-1.719c0.047-0.219 0.107-0.414 0.162-0.576 0.221-0.633 0.568-1.262 1.031-1.875 0.492-0.652 1.096-1.248 1.787-1.773 0.691-0.523 1.428-0.939 2.187-1.236 0.713-0.279 1.412-0.441 2.078-0.479 0.17-0.010 0.369-0.014 0.588 0zM18.86 17.238l-6.267-8.361c0.521-0.338 1.064-0.619 1.621-0.836 0.711-0.279 1.412-0.439 2.078-0.481 0.168-0.008 0.367-0.010 0.586 0.002l9.076 12.105c-0.867 0.238-1.781 0.301-2.697 0.172-1.764-0.25-3.324-1.174-4.396-2.601zM9.044 13.502c0.047-0.217 0.107-0.412 0.162-0.574 0.223-0.633 0.568-1.264 1.033-1.875 0.359-0.479 0.779-0.926 1.246-1.336l6.263 8.361c1.072 1.428 1.527 3.191 1.279 4.963-0.129 0.924-0.443 1.791-0.91 2.563l-9.074-12.101zM8.046 3.975c0.662-0.5 1.363-0.889 2.084-1.152 0.641-0.232 1.277-0.355 1.84-0.355 0.672 0 1.201 0.176 1.449 0.484l0.127 0.166c-1.506 0.166-3.162 0.826-4.666 1.965-1.508 1.141-2.598 2.562-3.168 3.974l-0.129-0.172c-0.564-0.813 0.113-3.131 2.463-4.91z"></path>
</svg>
