<!-- Generated by IcoMoon.io -->
<svg version="1.1" xmlns="http://www.w3.org/2000/svg" width="32" height="32" viewBox="0 0 32 32">
<title>soc5</title>
<path d="M16.748 0.001c-8.704 0-13.095 6.261-13.095 11.484 0 3.16 1.194 5.973 3.754 7.023 0.419 0.172 0.796 0.006 0.917-0.461 0.086-0.322 0.285-1.137 0.374-1.473 0.123-0.463 0.074-0.625-0.263-1.027-0.738-0.871-1.21-2.002-1.21-3.603 0-4.646 3.464-8.806 9.021-8.806 4.92 0 7.623 3.017 7.623 7.047 0 5.299-2.338 9.773-5.808 9.773-1.917 0-3.35-1.59-2.892-3.541 0.552-2.33 1.618-4.844 1.618-6.523 0-1.506-0.805-2.76-2.472-2.76-1.959 0-3.533 2.035-3.533 4.758 0 1.734 0.585 2.91 0.585 2.91s-2.006 8.523-2.357 10.015c-0.7 2.973 0.067 7.183 0.067 7.183s2.828-3.219 3.622-6.107c0.225-0.819 1.289-5.053 1.289-5.053 0.636 1.219 2.495 2.291 4.475 2.291 5.888 0 9.884-5.387 9.884-12.599 0-5.451-4.602-10.531-11.599-10.531z"></path>
</svg>
